<svg id="svg" xmlns="http://www.w3.org/2000/svg" xmlns:xlink="http://www.w3.org/1999/xlink" width="400" height="400" viewBox="0, 0, 400,400"><g id="svgg"><path id="path0" d="M193.134 16.992 C 193.526 39.358,196.338 45.509,208.801 51.266 L 213.672 53.516 235.547 53.906 C 256.635 54.283,257.525 54.361,260.296 56.084 C 266.427 59.896,267.963 68.272,263.584 74.013 C 259.272 79.666,264.000 79.254,198.473 79.688 L 139.453 80.078 135.008 82.261 C 117.982 90.622,114.443 113.299,128.162 126.131 C 135.469 132.966,136.285 133.148,161.719 133.594 C 185.248 134.007,185.436 134.037,189.208 138.019 C 192.288 141.270,192.969 143.802,192.969 152.004 L 192.969 159.375 186.328 159.375 L 179.688 159.375 179.688 172.574 L 179.688 185.774 137.305 186.169 C 85.678 186.650,81.425 187.259,62.109 196.927 C 7.497 224.262,-14.975 286.013,10.167 339.664 C 35.311 393.321,102.452 415.836,155.469 388.390 C 159.980 386.054,166.660 382.610,170.313 380.735 C 191.256 369.984,213.795 371.337,237.500 384.766 C 275.145 406.092,318.576 405.173,352.916 382.323 C 399.734 351.172,414.257 286.891,385.040 240.142 C 370.726 217.241,348.344 199.220,324.104 191.084 C 311.477 186.845,308.354 186.595,262.695 186.169 L 220.313 185.774 220.313 172.574 L 220.313 159.375 213.764 159.375 L 207.216 159.375 206.905 149.382 C 206.525 137.209,204.834 132.901,197.969 126.627 C 190.977 120.237,187.602 119.531,164.031 119.531 C 143.100 119.531,141.732 119.317,137.680 115.409 C 132.912 110.809,132.590 103.650,136.930 98.707 C 141.143 93.909,137.702 94.173,201.563 93.750 C 260.445 93.360,260.553 93.356,264.265 91.626 C 285.184 81.875,285.534 52.021,264.844 42.261 C 260.614 40.266,260.203 40.228,238.672 39.844 C 207.187 39.282,207.031 39.156,207.031 14.402 L 207.031 0.000 199.934 0.000 L 192.837 0.000 193.134 16.992 M206.250 179.688 L 206.250 185.938 200.000 185.938 L 193.750 185.938 193.750 179.688 L 193.750 173.438 200.000 173.438 L 206.250 173.438 206.250 179.688 M299.609 200.766 C 346.404 204.414,385.534 246.576,385.544 293.359 C 385.559 364.052,309.899 408.999,248.828 374.578 C 213.516 354.675,188.265 354.140,154.788 372.586 C 96.303 404.809,28.653 374.867,15.637 310.997 C 5.169 259.630,46.584 205.289,99.609 200.816 C 109.887 199.949,288.554 199.904,299.609 200.766 M284.685 227.626 C 265.427 233.922,260.113 259.139,275.116 273.029 C 297.012 293.300,330.552 268.045,317.350 241.227 C 311.604 229.555,297.168 223.544,284.685 227.626 M88.222 241.858 C 86.382 243.815,86.321 244.280,86.071 258.217 L 85.815 272.561 71.354 272.804 L 56.893 273.047 55.009 275.239 C 52.070 278.659,52.070 308.060,55.009 311.480 L 56.893 313.672 71.354 313.928 L 85.815 314.185 86.072 328.646 L 86.328 343.107 88.520 344.991 C 91.940 347.930,121.341 347.930,124.761 344.991 L 126.953 343.107 127.196 328.646 L 127.439 314.185 141.914 313.929 L 156.388 313.672 158.272 311.480 C 160.133 309.315,160.156 309.084,160.156 293.061 L 160.156 276.835 158.142 274.941 C 156.184 273.099,155.730 273.040,141.784 272.804 L 127.439 272.561 127.196 258.216 C 126.960 244.270,126.901 243.816,125.059 241.858 L 123.165 239.844 106.641 239.844 L 90.116 239.844 88.222 241.858 M298.927 241.896 C 300.400 242.595,302.299 244.049,303.147 245.127 C 312.746 257.331,296.626 273.160,285.153 262.795 C 274.081 252.792,285.470 235.510,298.927 241.896 M113.281 268.504 C 113.281 288.102,111.906 286.719,131.386 286.719 L 146.094 286.719 146.094 293.359 L 146.094 300.000 131.496 300.000 C 111.898 300.000,113.281 298.625,113.281 318.105 L 113.281 332.813 107.093 332.813 L 100.905 332.813 100.648 318.421 C 100.398 304.434,100.337 303.972,98.497 302.014 L 96.603 300.000 81.895 300.000 L 67.188 300.000 67.188 293.359 L 67.188 286.719 81.895 286.719 L 96.603 286.719 98.497 284.704 C 100.337 282.747,100.398 282.285,100.648 268.298 L 100.905 253.906 107.093 253.906 L 113.281 253.906 113.281 268.504 M238.672 267.454 C 209.383 277.144,215.766 319.922,246.501 319.922 C 281.341 319.922,282.846 268.115,248.047 266.678 C 244.260 266.521,240.566 266.827,238.672 267.454 M331.254 267.663 C 302.442 278.122,309.634 320.019,340.221 319.893 C 375.002 319.749,375.857 268.034,341.100 266.642 C 336.653 266.464,333.719 266.768,331.254 267.663 M252.074 281.751 C 259.719 285.378,261.753 295.758,256.013 301.844 C 245.282 313.222,227.379 299.085,236.147 286.156 C 239.555 281.130,246.638 279.171,252.074 281.751 M344.764 281.524 C 346.153 282.105,348.391 283.834,349.738 285.367 C 358.790 295.677,345.977 311.295,334.058 304.479 C 320.174 296.540,330.045 275.374,344.764 281.524 M286.148 307.108 C 270.121 310.940,261.533 330.971,269.505 345.926 C 278.272 362.373,302.212 365.208,313.722 351.161 C 330.623 330.536,312.079 300.910,286.148 307.108 M297.889 321.368 C 303.300 323.629,306.954 330.009,305.933 335.413 C 303.654 347.469,287.561 349.902,282.014 339.028 C 276.763 328.736,287.346 316.963,297.889 321.368 " stroke="none" fill="#000000" fill-rule="evenodd"></path></g></svg>