<svg id="svg" xmlns="http://www.w3.org/2000/svg" xmlns:xlink="http://www.w3.org/1999/xlink" width="400" height="400" viewBox="0, 0, 400,400"><g id="svgg"><path id="path0" d="M196.875 14.606 C 194.733 16.119,57.533 142.389,49.023 150.680 C 44.736 154.856,43.750 156.274,43.750 158.256 C 43.750 163.372,43.113 163.281,78.886 163.281 L 111.164 163.281 110.623 174.805 C 107.095 249.920,82.247 318.510,42.007 364.209 C 36.321 370.666,35.382 373.548,38.147 376.051 C 40.580 378.252,43.651 377.666,46.726 374.414 C 91.205 327.373,121.050 242.777,121.090 163.626 C 121.096 152.624,123.899 153.585,90.432 153.125 L 61.986 152.734 126.349 93.359 C 161.749 60.703,192.769 32.140,195.282 29.887 L 199.852 25.789 268.692 89.262 L 337.533 152.734 309.637 152.940 C 275.311 153.192,278.906 151.298,278.906 169.136 C 278.906 242.685,308.463 326.460,350.366 371.680 C 356.910 378.742,361.458 379.372,362.889 373.415 C 363.422 371.197,362.812 370.294,352.700 358.334 C 316.461 315.473,291.449 244.302,289.298 177.930 L 288.824 163.281 320.974 163.281 C 356.508 163.281,356.250 163.318,356.250 158.215 C 356.250 155.549,359.992 159.118,281.250 86.687 C 242.363 50.917,208.789 19.965,206.641 17.906 C 202.026 13.484,199.617 12.670,196.875 14.606 M186.719 162.152 C 148.953 170.263,137.185 222.620,164.844 259.473 L 168.728 264.649 165.523 272.363 C 161.421 282.234,163.120 280.787,146.782 288.324 C 123.916 298.873,122.937 300.208,115.713 330.706 C 107.136 366.914,107.403 367.345,144.181 376.743 C 177.335 385.215,178.949 385.485,196.484 385.485 C 213.532 385.485,213.123 385.549,251.172 376.830 C 292.725 367.308,292.649 367.413,284.074 331.518 C 276.302 298.979,274.257 296.688,240.361 282.525 C 238.037 281.554,237.383 280.529,234.494 273.333 C 230.553 263.514,230.521 264.892,234.821 259.303 C 247.284 243.107,252.959 214.226,247.595 194.304 C 241.164 170.420,214.295 156.230,186.719 162.152 M210.578 172.289 C 236.369 178.912,246.528 206.716,234.669 238.223 C 228.842 253.702,210.466 271.169,200.105 271.075 C 187.474 270.961,169.494 252.959,163.807 234.733 C 151.221 194.394,174.682 163.072,210.578 172.289 M51.682 205.273 C 42.233 216.589,25.695 238.136,25.294 239.654 C 24.483 242.722,26.795 244.868,34.303 248.017 L 41.406 250.995 41.406 265.676 C 41.406 281.736,41.695 282.825,45.954 282.801 C 50.933 282.772,51.563 280.493,51.563 262.500 C 51.563 244.371,51.541 244.306,44.525 241.189 C 41.521 239.854,39.064 238.566,39.065 238.326 C 39.070 237.535,56.787 215.442,57.405 215.455 C 58.056 215.469,75.747 237.560,75.768 238.386 C 75.775 238.658,73.760 239.669,71.289 240.632 C 63.057 243.842,63.160 243.542,63.435 263.437 C 63.696 282.318,63.832 282.813,68.778 282.813 C 73.051 282.813,73.438 281.371,73.438 265.437 L 73.438 250.919 80.544 247.973 C 93.156 242.746,93.228 243.090,74.630 219.727 C 57.708 198.470,57.482 198.327,51.682 205.273 M324.724 219.975 C 306.544 242.952,306.553 242.910,318.750 247.894 L 325.391 250.608 325.781 265.421 C 326.212 281.747,326.521 282.813,330.834 282.813 C 335.706 282.813,335.938 281.913,335.938 262.973 C 335.938 243.259,336.106 243.786,328.918 240.966 C 322.287 238.364,321.731 240.448,332.774 226.514 L 342.111 214.733 351.549 226.641 L 360.986 238.549 355.688 240.791 C 348.116 243.994,348.438 243.012,348.438 262.919 C 348.438 281.871,348.665 282.813,353.233 282.813 C 357.906 282.813,358.167 281.976,358.594 265.662 L 358.984 250.725 365.966 247.633 C 377.595 242.484,377.699 242.959,360.077 220.643 C 340.300 195.598,343.956 195.668,324.724 219.975 M180.736 274.134 C 193.208 282.715,204.207 283.007,217.188 275.102 C 219.980 273.402,222.498 272.243,222.783 272.528 C 223.922 273.669,227.317 283.147,226.764 283.641 C 223.750 286.333,208.297 295.790,205.576 296.609 C 197.860 298.931,194.046 297.793,181.317 289.368 L 172.108 283.273 174.487 277.574 C 175.795 274.439,176.998 271.875,177.159 271.875 C 177.321 271.875,178.930 272.892,180.736 274.134 M176.034 298.318 C 195.873 311.449,203.929 311.316,224.807 297.513 L 234.379 291.184 247.743 297.328 C 267.926 306.608,267.414 305.890,274.182 334.351 C 280.762 362.017,283.283 358.942,247.197 367.253 C 198.252 378.526,192.439 378.539,149.160 367.474 C 116.612 359.152,118.735 362.306,125.783 332.739 C 132.092 306.276,131.667 306.862,151.228 297.658 C 167.124 290.178,163.595 290.085,176.034 298.318 " stroke="none" fill="#000000" fill-rule="evenodd"></path></g></svg>