<svg id="svg" xmlns="http://www.w3.org/2000/svg" xmlns:xlink="http://www.w3.org/1999/xlink" width="400" height="400" viewBox="0, 0, 400,400"><g id="svgg"><path id="path0" d="M152.400 2.058 C 150.850 4.029,150.781 5.046,150.781 25.887 C 150.781 37.860,150.661 47.656,150.513 47.656 C 150.365 47.656,148.292 46.985,145.906 46.164 C 102.985 31.397,57.813 63.936,57.813 109.621 L 57.813 117.744 52.224 118.264 C 22.357 121.040,27.008 164.883,57.998 172.686 C 61.446 173.554,61.514 173.635,62.481 177.995 C 65.040 189.542,71.116 200.716,79.263 208.864 C 86.608 216.209,88.109 222.868,84.309 231.250 C 80.738 239.128,78.845 240.049,53.012 246.477 C 22.776 254.001,12.825 260.101,5.212 275.781 C -0.120 286.764,0.000 285.193,-0.000 343.778 L -0.000 396.603 1.808 398.301 L 3.616 400.000 124.500 400.000 L 245.384 400.000 247.301 398.082 L 249.219 396.165 249.219 366.051 L 249.219 335.938 278.945 335.938 C 313.771 335.938,314.063 335.880,314.063 328.979 C 314.063 323.456,313.951 323.437,279.832 323.437 L 249.219 323.438 249.219 318.750 L 249.219 314.063 311.779 314.063 L 374.339 314.063 376.623 311.779 L 378.906 309.495 378.906 167.578 L 378.906 25.661 376.623 23.377 L 374.339 21.094 338.837 21.094 C 298.387 21.094,299.219 20.964,299.219 27.264 C 299.219 33.730,298.456 33.594,334.621 33.594 L 366.406 33.594 366.406 81.701 L 366.406 129.809 363.834 126.436 C 360.406 121.942,354.287 118.860,347.558 118.239 L 342.381 117.761 341.994 107.123 C 341.583 95.799,339.712 87.940,335.392 79.393 L 333.466 75.582 345.249 63.711 C 358.264 50.598,359.343 48.538,355.223 44.667 C 351.197 40.885,349.268 41.878,336.973 54.068 L 325.779 65.167 322.267 61.720 L 318.755 58.273 321.002 55.894 C 330.031 46.340,321.486 37.622,312.134 46.846 L 308.203 50.723 301.534 48.042 C 257.114 30.187,210.945 59.813,208.833 107.529 L 208.379 117.793 204.189 118.141 C 201.885 118.332,198.115 118.332,195.811 118.141 L 191.621 117.793 191.167 107.529 C 190.694 96.849,189.512 91.109,186.283 83.807 C 184.401 79.552,184.375 79.179,184.375 56.543 L 184.375 33.594 232.083 33.594 C 261.708 33.594,280.332 33.304,281.219 32.829 C 284.887 30.866,284.600 23.722,280.784 21.983 C 278.238 20.823,179.219 20.716,176.185 21.870 C 172.447 23.291,171.875 26.352,171.875 44.934 L 171.875 61.793 167.622 58.435 L 163.368 55.078 163.325 33.398 L 163.281 11.719 275.781 11.719 L 388.281 11.719 388.281 167.578 L 388.281 323.438 360.213 323.438 L 332.145 323.437 330.525 325.496 C 328.695 327.824,328.511 329.528,329.789 332.332 C 331.395 335.858,332.912 336.005,365.398 335.769 L 395.969 335.547 397.985 333.653 L 400.000 331.759 400.000 167.578 L 400.000 3.397 398.192 1.699 L 396.384 -0.000 275.202 -0.000 L 154.020 -0.000 152.400 2.058 M137.805 57.009 C 159.886 62.657,176.516 82.024,178.607 104.528 C 179.124 110.083,177.032 148.964,175.720 158.203 C 173.049 177.009,154.500 191.964,130.568 194.609 C 119.493 195.833,116.408 198.251,118.739 203.879 C 121.286 210.029,140.212 208.160,156.459 200.155 L 163.908 196.484 158.623 202.039 C 149.715 211.400,147.741 225.557,153.674 237.528 C 156.684 243.601,156.835 243.415,147.188 245.489 C 133.243 248.488,109.488 247.834,96.292 244.090 L 92.193 242.927 94.113 240.018 C 101.016 229.561,99.790 211.730,91.579 203.163 C 85.336 196.650,85.249 196.434,89.939 199.082 C 97.023 203.083,103.125 201.613,103.125 195.906 C 103.125 192.313,101.898 190.887,96.263 187.925 C 85.896 182.477,78.396 174.500,75.089 165.401 C 72.948 159.511,70.017 122.575,70.520 107.813 C 71.697 73.213,104.455 48.480,137.805 57.009 M287.212 56.622 C 289.847 57.243,293.470 58.338,295.262 59.055 L 298.521 60.359 291.741 67.288 C 284.346 74.845,283.575 77.331,287.589 80.664 C 291.355 83.791,294.114 82.656,302.297 74.616 L 309.844 67.201 313.297 70.719 L 316.749 74.237 308.975 82.040 C 301.771 89.272,300.977 89.844,298.142 89.844 C 296.460 89.844,291.791 90.898,287.767 92.187 C 277.992 95.319,272.734 95.301,262.751 92.103 C 245.537 86.589,237.537 91.986,236.866 109.563 L 236.546 117.955 233.543 118.764 C 229.545 119.840,226.111 122.848,223.889 127.219 L 222.068 130.803 221.496 118.998 C 220.853 105.709,221.251 101.379,223.888 92.969 C 232.097 66.796,260.711 50.372,287.212 56.622 M328.170 96.661 C 329.763 102.890,330.126 112.548,329.185 123.683 L 328.682 129.633 326.255 125.647 C 323.826 121.657,320.482 119.235,316.211 118.373 L 314.063 117.939 314.027 109.946 C 314.006 105.043,313.589 101.047,312.948 99.609 C 311.914 97.286,311.957 97.213,317.849 91.210 L 323.793 85.154 325.223 87.941 C 326.009 89.474,327.336 93.398,328.170 96.661 M262.310 105.047 C 268.448 106.859,270.657 107.141,276.919 106.911 L 284.296 106.641 282.304 108.718 C 278.076 113.128,280.485 119.687,286.332 119.687 C 288.944 119.687,289.929 119.024,295.412 113.573 L 301.563 107.459 301.563 114.029 C 301.563 124.060,304.721 128.989,312.055 130.406 C 314.248 130.829,314.998 131.938,320.822 143.364 L 327.191 155.859 326.827 161.719 C 325.152 188.701,310.660 207.888,287.500 213.788 C 264.605 219.619,238.278 206.630,228.967 184.906 L 227.488 181.456 232.884 176.101 C 237.661 171.360,238.281 170.406,238.281 167.794 C 238.281 161.529,231.687 159.475,226.795 164.216 L 224.219 166.713 224.253 160.505 C 224.302 151.617,234.417 131.161,239.131 130.417 C 246.470 129.259,249.219 124.596,249.219 113.307 C 249.219 101.041,249.067 101.137,262.310 105.047 M58.647 131.445 C 58.676 131.982,59.142 138.574,59.682 146.094 C 60.822 161.954,61.056 161.022,56.544 158.628 C 44.860 152.430,40.434 135.540,49.465 131.612 C 52.654 130.225,58.575 130.118,58.647 131.445 M201.812 133.484 C 207.706 139.382,202.617 153.354,192.647 158.643 C 190.721 159.664,188.985 160.335,188.789 160.133 C 188.514 159.850,190.173 131.887,190.543 130.567 C 190.968 129.053,199.622 131.293,201.812 133.484 M350.364 131.579 C 359.223 135.281,355.837 150.810,344.620 157.924 C 342.684 159.152,340.727 160.156,340.271 160.156 C 339.609 160.156,340.285 141.905,341.349 131.055 C 341.447 130.055,347.568 130.411,350.364 131.579 M278.906 140.398 C 275.503 141.649,275.000 142.979,275.000 150.729 C 275.000 159.608,274.042 161.719,270.014 161.719 C 264.473 161.719,261.797 169.198,266.121 172.600 C 271.293 176.668,281.706 172.767,285.783 165.234 C 288.251 160.673,287.640 144.076,284.917 141.731 C 282.766 139.879,281.239 139.540,278.906 140.398 M366.406 201.041 L 366.406 251.300 346.724 246.386 C 316.909 238.941,314.089 236.786,314.070 221.440 L 314.063 215.146 318.488 210.893 C 327.912 201.837,334.489 190.735,337.172 179.354 L 338.538 173.558 342.121 172.657 C 351.154 170.385,361.420 161.965,364.607 154.212 C 365.382 152.328,366.104 150.786,366.211 150.784 C 366.318 150.783,366.406 173.398,366.406 201.041 M207.261 172.042 C 215.601 174.849,215.456 175.463,203.615 187.430 C 192.656 198.506,191.756 200.420,195.668 204.332 C 199.363 208.028,201.641 207.155,210.165 198.781 L 217.767 191.312 220.270 195.749 L 222.774 200.185 208.262 214.826 C 192.480 230.747,191.865 231.768,195.369 236.223 C 199.134 241.009,201.090 239.908,216.925 224.090 L 231.132 209.899 233.915 212.176 L 236.697 214.453 236.513 222.326 C 236.191 236.050,232.965 239.087,213.405 244.087 L 200.076 247.493 192.226 245.525 L 184.375 243.556 184.375 214.672 C 184.375 192.211,184.620 184.892,185.479 181.761 C 186.086 179.546,186.787 176.803,187.036 175.665 C 187.409 173.964,188.151 173.434,191.206 172.690 C 193.250 172.191,195.801 171.276,196.875 170.656 C 199.045 169.403,199.667 169.486,207.261 172.042 M250.794 183.785 C 239.954 189.448,257.298 203.142,275.278 203.116 C 293.138 203.090,308.602 192.125,301.207 184.730 C 298.657 182.180,296.399 182.313,291.755 185.286 C 280.976 192.188,269.234 192.424,260.256 185.920 C 256.326 183.073,253.415 182.417,250.794 183.785 M171.493 238.924 C 168.880 241.537,163.320 230.070,163.298 222.024 L 163.281 215.531 167.383 211.194 L 171.484 206.856 171.696 222.682 C 171.813 231.387,171.721 238.695,171.493 238.924 M111.184 214.849 C 105.006 217.338,107.349 226.018,114.437 226.903 C 116.379 227.145,119.463 227.521,121.289 227.738 C 131.598 228.961,141.406 225.718,141.406 221.087 C 141.406 215.724,138.053 213.834,130.278 214.815 C 126.873 215.244,122.426 215.247,119.141 214.822 C 112.707 213.989,113.325 213.987,111.184 214.849 M255.787 224.610 C 269.236 229.125,285.932 228.487,300.482 222.904 C 301.271 222.601,301.563 223.205,301.563 225.143 C 301.563 232.457,305.908 242.011,311.446 246.874 L 314.164 249.260 310.012 251.079 C 287.925 260.758,260.327 260.741,241.147 251.037 L 237.372 249.127 241.006 245.242 C 245.686 240.238,248.520 234.027,249.032 227.648 C 249.252 224.902,249.553 222.656,249.700 222.656 C 249.847 222.656,252.586 223.535,255.787 224.610 M86.116 254.246 C 108.424 261.718,138.800 261.902,161.132 254.701 L 168.359 252.371 190.234 257.916 C 214.886 264.164,219.187 265.937,225.839 272.589 C 236.636 283.386,236.719 283.904,236.719 340.767 L 236.719 388.281 221.484 388.281 L 206.250 388.281 206.250 357.918 C 206.250 323.192,206.295 323.438,200.000 323.438 C 193.705 323.438,193.750 323.192,193.750 357.918 L 193.750 388.281 124.635 388.281 L 55.521 388.281 55.299 357.503 C 55.049 322.631,55.195 323.437,49.098 323.438 C 42.788 323.438,42.969 322.435,42.969 357.422 L 42.969 388.281 27.295 388.281 L 11.621 388.281 11.892 340.430 C 12.153 294.182,12.217 292.415,13.811 287.697 C 16.953 278.397,24.488 269.497,32.589 265.518 C 35.291 264.190,73.456 253.641,79.866 252.450 C 80.180 252.391,82.992 253.200,86.116 254.246 M346.633 259.337 C 355.308 261.501,363.306 263.682,364.406 264.183 L 366.406 265.095 366.406 283.329 L 366.406 301.563 307.874 301.563 L 249.342 301.563 249.072 295.508 C 248.923 292.178,248.808 289.408,248.815 289.353 C 248.822 289.298,251.641 289.782,255.078 290.429 C 281.338 295.367,325.781 287.000,325.781 277.119 C 325.781 271.053,320.947 269.831,311.128 273.414 C 286.537 282.389,247.951 281.152,241.253 271.175 C 239.925 269.197,237.572 266.244,236.023 264.613 L 233.208 261.648 238.799 263.954 C 266.109 275.216,303.032 272.303,325.000 257.153 C 326.934 255.819,329.043 254.880,329.688 255.065 C 330.332 255.251,337.957 257.173,346.633 259.337 " stroke="none" fill="#000000" fill-rule="evenodd"></path></g></svg>