<svg id="svg" xmlns="http://www.w3.org/2000/svg" xmlns:xlink="http://www.w3.org/1999/xlink" width="400" height="400" viewBox="0, 0, 400,400"><g id="svgg"><path id="path0" d="M90.820 49.394 C 0.264 82.217,-0.000 82.319,-0.000 84.459 C -0.000 86.334,0.520 86.801,4.102 88.139 C 6.357 88.981,46.817 103.980,94.011 121.469 L 179.819 153.267 271.355 120.286 C 321.699 102.147,363.506 86.985,364.258 86.594 C 365.846 85.768,366.064 83.344,364.648 82.245 C 363.344 81.232,184.088 16.397,182.714 16.441 C 182.124 16.460,140.771 31.289,90.820 49.394 M376.953 112.045 L 363.672 116.924 363.472 178.088 L 363.272 239.253 366.355 236.468 C 374.375 229.222,383.236 229.562,390.160 237.382 C 390.979 238.306,391.945 239.062,392.309 239.063 C 392.672 239.063,392.969 209.355,392.969 173.047 C 392.969 110.670,392.893 107.035,391.602 107.098 C 390.850 107.135,384.258 109.361,376.953 112.045 M46.875 179.114 C 46.875 232.545,45.633 228.031,63.536 239.658 C 105.232 266.737,197.011 274.269,259.766 255.764 C 285.441 248.192,310.771 233.304,313.267 224.316 C 314.126 221.226,314.417 135.156,313.569 135.156 C 313.298 135.156,283.825 145.703,248.073 158.594 C 201.806 175.276,182.124 182.031,179.790 182.031 C 177.417 182.031,158.717 175.444,112.141 158.203 C 76.738 145.098,47.570 134.375,47.323 134.375 C 47.077 134.375,46.875 154.507,46.875 179.114 M366.592 275.986 C 360.474 282.115,355.469 287.481,355.469 287.911 C 355.469 288.931,376.733 310.156,377.755 310.156 C 378.775 310.156,400.000 288.892,400.000 287.870 C 400.000 287.441,394.986 282.084,388.857 275.966 L 377.714 264.843 366.592 275.986 M363.438 355.201 L 363.672 374.735 365.931 377.695 C 372.433 386.214,385.428 385.180,391.016 375.698 C 392.459 373.249,394.076 335.938,392.739 335.938 C 392.556 335.938,391.044 337.222,389.379 338.792 C 381.542 346.183,374.677 346.242,366.805 338.987 L 363.203 335.667 363.438 355.201 " stroke="none" fill="#000000" fill-rule="evenodd"></path></g></svg>